<?xml version="1.0" encoding="utf-8"?>
<!-- Generator: Adobe Illustrator 25.3.1, SVG Export Plug-In . SVG Version: 6.00 Build 0)  -->
<svg version="1.1" id="exportSvg" xmlns="http://www.w3.org/2000/svg" xmlns:xlink="http://www.w3.org/1999/xlink" x="0px" y="0px"
	 viewBox="0 0 550 1264" style="enable-background:new 0 0 550 1264;" xml:space="preserve">
<style type="text/css">
	.st0{clip-path:url(#SVGID_2_);}
	.st1{fill:#FFEF00;stroke:#FFFFFF;stroke-width:0.5;}
	.st2{fill:#FF0000;stroke:#FFFFFF;stroke-width:0.5;}
	.st3{fill:#004AE8;stroke:#FFFFFF;stroke-width:0.5;}
	.st4{fill:#FFA200;stroke:#FFFFFF;stroke-width:0.5;}
	.st5{fill:#00FF5D;stroke:#FFFFFF;stroke-width:0.5;}
	.st6{font-family:'Roboto-Regular';}
	.st7{font-size:12px;}
	.st8{fill:#FFFFFF;}
	.st9{clip-path:url(#SVGID_4_);}
	.st10{clip-path:url(#SVGID_6_);}
	.st11{clip-path:url(#SVGID_8_);}
	.st12{clip-path:url(#SVGID_10_);}
	.st13{clip-path:url(#SVGID_12_);}
	.st14{clip-path:url(#SVGID_14_);}
	.st15{clip-path:url(#SVGID_16_);}
	.st16{clip-path:url(#SVGID_18_);}
	.st17{clip-path:url(#SVGID_20_);}
	.st18{clip-path:url(#SVGID_22_);}
	.st19{clip-path:url(#SVGID_24_);}
	.st20{clip-path:url(#SVGID_26_);}
	.st21{clip-path:url(#SVGID_28_);}
	.st22{clip-path:url(#SVGID_30_);}
	.st23{clip-path:url(#SVGID_32_);}
	.st24{clip-path:url(#SVGID_34_);}
	.st25{clip-path:url(#SVGID_36_);}
	.st26{clip-path:url(#SVGID_38_);}
	.st27{clip-path:url(#SVGID_40_);}
	.st28{clip-path:url(#SVGID_42_);}
	.st29{clip-path:url(#SVGID_44_);}
	.st30{clip-path:url(#SVGID_46_);}
	.st31{clip-path:url(#SVGID_48_);}
	.st32{clip-path:url(#SVGID_50_);}
	.st33{clip-path:url(#SVGID_52_);}
</style>
<g>
	<g id="after-body-svg">
	</g>
</g>
<g id="chart-svg">
	<g>
		<defs>
			<rect id="SVGID_1_" x="13" y="10" width="104" height="104"/>
		</defs>
		<clipPath id="SVGID_2_">
			<use xlink:href="#SVGID_1_"  style="overflow:visible;"/>
		</clipPath>
		<g id="group-svg" transform="translate(13.00000, 10.00000)" class="st0">
			<g id="pie-svg" transform="translate(52, 52)">
				<g>
					<path class="st1" d="M0-52c28.7,0,52,23.3,52,52c0,12.9-4.8,25.4-13.5,35L0,0V-52z"/>
				</g>
				<g>
					<path class="st2" d="M38.5,35C19.1,56.2-13.8,57.8-35,38.5c-6.4-5.8-11.2-13.1-14.1-21.3L0,0L38.5,35z"/>
				</g>
				<g>
					<path class="st3" d="M-49.1,17.2c-4.7-13.4-3.7-28.2,2.8-40.8L0,0L-49.1,17.2z"/>
				</g>
				<g>
					<path class="st4" d="M-46.3-23.6c6.2-12.1,16.9-21.3,29.7-25.7L0,0L-46.3-23.6z"/>
				</g>
				<g>
					<path class="st5" d="M-16.6-49.3C-11.2-51.1-5.6-52,0-52V0L-16.6-49.3z"/>
				</g>
			</g>
		</g>
	</g>
	<text transform="matrix(1 0 0 1 83.5742 53.863)" class="st6 st7">37%</text>
	<text transform="matrix(1 0 0 1 47.3672 98.8474)" class="st8 st6 st7">33%</text>
	<text transform="matrix(1 0 0 1 21.4213 64.814)" class="st8 st6 st7">13%</text>
	<text transform="matrix(1 0 0 1 32.6185 42.3916)" class="st8 st6 st7">12%</text>
	<g>
		<defs>
			<rect id="SVGID_3_" x="153" y="10" width="104" height="104"/>
		</defs>
		<clipPath id="SVGID_4_">
			<use xlink:href="#SVGID_3_"  style="overflow:visible;"/>
		</clipPath>
		<g id="group-svg_1_" transform="translate(153.00000, 10.00000)" class="st9">
			<g id="pie-svg_1_" transform="translate(52, 52)">
				<g>
					<path class="st1" d="M0-52c28.7,0,52,23.3,52,52c0,13.2-5,25.9-14,35.5L0,0V-52z"/>
				</g>
				<g>
					<path class="st2" d="M38,35.5c-19.6,21-52.5,22.1-73.5,2.5c-8-7.5-13.4-17.3-15.5-28L0,0L38,35.5z"/>
				</g>
				<g>
					<path class="st3" d="M-51,10c-2.5-12.6-0.2-25.6,6.4-36.6L0,0L-51,10z"/>
				</g>
				<g>
					<path class="st4" d="M-44.7-26.6c6.4-10.7,16.3-18.7,28.1-22.7L0,0L-44.7-26.6z"/>
				</g>
				<g>
					<path class="st5" d="M-16.6-49.3C-11.2-51.1-5.6-52,0-52V0L-16.6-49.3z"/>
				</g>
			</g>
		</g>
	</g>
	<text transform="matrix(1 0 0 1 223.658 54.0543)" class="st6 st7">37%</text>
	<text transform="matrix(1 0 0 1 184.8972 98.2432)" class="st8 st6 st7">35%</text>
	<text transform="matrix(1 0 0 1 161.8275 61.4355)" class="st8 st6 st7">12%</text>
	<text transform="matrix(1 0 0 1 173.4413 41.7051)" class="st8 st6 st7">11%</text>
	<g>
		<defs>
			<rect id="SVGID_5_" x="293" y="10" width="104" height="104"/>
		</defs>
		<clipPath id="SVGID_6_">
			<use xlink:href="#SVGID_5_"  style="overflow:visible;"/>
		</clipPath>
		<g id="group-svg_2_" transform="translate(293.00000, 10.00000)" class="st10">
			<g id="pie-svg_2_" transform="translate(52, 52)">
				<g>
					<path class="st1" d="M0-52c28.7,0,52,23.3,52,52c0,10-2.9,19.7-8.2,28.1L0,0V-52z"/>
				</g>
				<g>
					<path class="st2" d="M43.8,28.1C28.3,52.2-3.9,59.3-28.1,43.8c-8.3-5.3-14.9-12.9-19.1-21.9L0,0L43.8,28.1z"/>
				</g>
				<g>
					<path class="st3" d="M-47.2,21.9C-52.9,9.5-53.6-4.6-49-17.4L0,0L-47.2,21.9z"/>
				</g>
				<g>
					<path class="st4" d="M-49-17.4c4.9-13.7,15.2-24.7,28.6-30.4L0,0L-49-17.4z"/>
				</g>
				<g>
					<path class="st5" d="M-20.4-47.8C-14-50.6-7-52,0-52V0L-20.4-47.8z"/>
				</g>
			</g>
		</g>
	</g>
	<text transform="matrix(1 0 0 1 362.3654 51.4119)" class="st6 st7">34%</text>
	<text transform="matrix(1 0 0 1 331.6418 99.425)" class="st8 st6 st7">34%</text>
	<text transform="matrix(1 0 0 1 301.3823 68.5007)" class="st8 st6 st7">12%</text>
	<text transform="matrix(1 0 0 1 310.1758 44.7313)" class="st8 st6 st7">13%</text>
	<g>
		<defs>
			<rect id="SVGID_7_" x="433" y="10" width="104" height="104"/>
		</defs>
		<clipPath id="SVGID_8_">
			<use xlink:href="#SVGID_7_"  style="overflow:visible;"/>
		</clipPath>
		<g id="group-svg_3_" transform="translate(433.00000, 10.00000)" class="st11">
			<g id="pie-svg_3_" transform="translate(52, 52)">
				<g>
					<path class="st1" d="M0-52c28.7,0,52,23.3,52,52c0,7.2-1.5,14.4-4.4,21L0,0V-52z"/>
				</g>
				<g>
					<path class="st2" d="M47.6,21C36,47.3,5.3,59.2-21,47.6c-10.7-4.7-19.5-12.9-25-23.3L0,0L47.6,21z"/>
				</g>
				<g>
					<path class="st3" d="M-46,24.3c-6.2-11.8-7.7-25.5-4.1-38.3L0,0L-46,24.3z"/>
				</g>
				<g>
					<path class="st4" d="M-50.1-14c4-14.4,14.1-26.4,27.6-32.9L0,0L-50.1-14z"/>
				</g>
				<g>
					<path class="st5" d="M-22.4-46.9C-15.4-50.3-7.8-52,0-52V0L-22.4-46.9z"/>
				</g>
			</g>
		</g>
	</g>
	<text transform="matrix(1 0 0 1 501.0757 49.255)" class="st6 st7">32%</text>
	<text transform="matrix(1 0 0 1 475.0002 99.4795)" class="st8 st6 st7">36%</text>
	<text transform="matrix(1 0 0 1 441.5326 70.4618)" class="st8 st6 st7">12%</text>
	<text transform="matrix(1 0 0 1 448.9651 46.0929)" class="st8 st6 st7">14%</text>
	<g>
		<defs>
			<rect id="SVGID_9_" x="13" y="172" width="104" height="104"/>
		</defs>
		<clipPath id="SVGID_10_">
			<use xlink:href="#SVGID_9_"  style="overflow:visible;"/>
		</clipPath>
		<g id="group-svg_4_" transform="translate(13.00000, 172.00000)" class="st12">
			<g id="pie-svg_4_" transform="translate(52, 52)">
				<g>
					<path class="st1" d="M0-52c28.7,0,52,23.3,52,52c0,8.4-2,16.6-5.9,24L0,0V-52z"/>
				</g>
				<g>
					<path class="st2" d="M46.1,24C32.8,49.5,1.4,59.4-24,46.1c-9.7-5.1-17.5-13-22.4-22.8L0,0L46.1,24z"/>
				</g>
				<g>
					<path class="st3" d="M-46.5,23.3c-6.5-12.9-7.3-28-2.2-41.5L0,0L-46.5,23.3z"/>
				</g>
				<g>
					<path class="st4" d="M-48.7-18.2c5.1-13.5,15.5-24.3,28.9-29.9L0,0L-48.7-18.2z"/>
				</g>
				<g>
					<path class="st5" d="M-19.8-48.1C-13.5-50.7-6.8-52,0-52V0L-19.8-48.1z"/>
				</g>
			</g>
		</g>
	</g>
	<text transform="matrix(1 0 0 1 81.6367 212.1472)" class="st6 st7">33%</text>
	<text transform="matrix(1 0 0 1 53.5944 261.499)" class="st8 st6 st7">35%</text>
	<text transform="matrix(1 0 0 1 21.3943 230.7413)" class="st8 st6 st7">13%</text>
	<text transform="matrix(1 0 0 1 30.4816 206.4107)" class="st8 st6 st7">13%</text>
	<g>
		<defs>
			<rect id="SVGID_11_" x="153" y="172" width="104" height="104"/>
		</defs>
		<clipPath id="SVGID_12_">
			<use xlink:href="#SVGID_11_"  style="overflow:visible;"/>
		</clipPath>
		<g id="group-svg_5_" transform="translate(153.00000, 172.00000)" class="st13">
			<g id="pie-svg_5_" transform="translate(52, 52)">
				<g>
					<path class="st1" d="M0-52c28.7,0,52,23.3,52,52c0,8.1-1.9,16-5.5,23.2L0,0V-52z"/>
				</g>
				<g>
					<path class="st2" d="M46.5,23.2C33.7,48.9,2.5,59.4-23.2,46.5c-9.3-4.6-17-11.9-22.1-21L0,0L46.5,23.2z"/>
				</g>
				<g>
					<path class="st3" d="M-45.3,25.6c-6.7-11.9-8.5-26-4.9-39.2L0,0L-45.3,25.6z"/>
				</g>
				<g>
					<path class="st4" d="M-50.2-13.6c4.1-15.1,14.8-27.5,29.1-33.9L0,0L-50.2-13.6z"/>
				</g>
				<g>
					<path class="st5" d="M-21.1-47.5C-14.5-50.5-7.3-52,0-52V0L-21.1-47.5z"/>
				</g>
			</g>
		</g>
	</g>
	<text transform="matrix(1 0 0 1 221.4877 211.9039)" class="st6 st7">32%</text>
	<text transform="matrix(1 0 0 1 194.6736 261.4895)" class="st8 st6 st7">34%</text>
	<text transform="matrix(1 0 0 1 161.5987 233.0316)" class="st8 st6 st7">12%</text>
	<text transform="matrix(1 0 0 1 169.1746 207.846)" class="st8 st6 st7">14%</text>
	<g>
		<defs>
			<rect id="SVGID_13_" x="293" y="172" width="104" height="104"/>
		</defs>
		<clipPath id="SVGID_14_">
			<use xlink:href="#SVGID_13_"  style="overflow:visible;"/>
		</clipPath>
		<g id="group-svg_6_" transform="translate(293.00000, 172.00000)" class="st14">
			<g id="pie-svg_6_" transform="translate(52, 52)">
				<g>
					<path class="st1" d="M0-52c28.7,0,52,23.3,52,52c0,8.5-2.1,16.9-6.1,24.4L0,0V-52z"/>
				</g>
				<g>
					<path class="st2" d="M45.9,24.4c-13.5,25.4-45,35-70.3,21.5C-36.1,39.7-45,29.2-49.3,16.7L0,0L45.9,24.4z"/>
				</g>
				<g>
					<path class="st3" d="M-49.3,16.7c-4.4-12.9-3.5-27.1,2.5-39.4L0,0L-49.3,16.7z"/>
				</g>
				<g>
					<path class="st4" d="M-46.8-22.7c6.1-12.5,16.9-22.1,30.1-26.6L0,0L-46.8-22.7z"/>
				</g>
				<g>
					<path class="st5" d="M-16.7-49.3C-11.3-51.1-5.7-52,0-52V0L-16.7-49.3z"/>
				</g>
			</g>
		</g>
	</g>
	<text transform="matrix(1 0 0 1 361.707 212.2636)" class="st6 st7">33%</text>
	<text transform="matrix(1 0 0 1 331.2114 261.3929)" class="st8 st6 st7">37%</text>
	<text transform="matrix(1 0 0 1 301.411 226.9713)" class="st8 st6 st7">12%</text>
	<text transform="matrix(1 0 0 1 312.3461 204.6293)" class="st8 st6 st7">13%</text>
	<g>
		<defs>
			<rect id="SVGID_15_" x="433" y="172" width="104" height="104"/>
		</defs>
		<clipPath id="SVGID_16_">
			<use xlink:href="#SVGID_15_"  style="overflow:visible;"/>
		</clipPath>
		<g id="group-svg_7_" transform="translate(433.00000, 172.00000)" class="st15">
			<g id="pie-svg_7_" transform="translate(52, 52)">
				<g>
					<path class="st1" d="M0-52c28.7,0,52,23.3,52,52c0,11.7-4,23.1-11.2,32.3L0,0V-52z"/>
				</g>
				<g>
					<path class="st2" d="M40.8,32.3c-17.8,22.5-50.5,26.3-73,8.5c-7.5-5.9-13.2-13.8-16.5-22.7L0,0L40.8,32.3z"/>
				</g>
				<g>
					<path class="st3" d="M-48.8,18.1C-53.6,5.1-53-9.2-47.2-21.7L0,0L-48.8,18.1z"/>
				</g>
				<g>
					<path class="st4" d="M-47.2-21.7c5.8-12.7,16.6-22.5,29.7-27.2L0,0L-47.2-21.7z"/>
				</g>
				<g>
					<path class="st5" d="M-17.5-49C-11.9-51-6-52,0-52V0L-17.5-49z"/>
				</g>
			</g>
		</g>
	</g>
	<text transform="matrix(1 0 0 1 503.1035 214.8457)" class="st6 st7">36%</text>
	<text transform="matrix(1 0 0 1 468.7534 261.0983)" class="st8 st6 st7">34%</text>
	<text transform="matrix(1 0 0 1 441.3712 227.7625)" class="st8 st6 st7">13%</text>
	<text transform="matrix(1 0 0 1 451.8956 205.0342)" class="st8 st6 st7">13%</text>
	<g>
		<defs>
			<rect id="SVGID_17_" x="13" y="334" width="104" height="104"/>
		</defs>
		<clipPath id="SVGID_18_">
			<use xlink:href="#SVGID_17_"  style="overflow:visible;"/>
		</clipPath>
		<g id="group-svg_8_" transform="translate(13.00000, 334.00000)" class="st16">
			<g id="pie-svg_8_" transform="translate(52, 52)">
				<g>
					<path class="st1" d="M0-52c28.7,0,52,23.3,52,52c0,7.9-1.8,15.8-5.3,22.9L0,0V-52z"/>
				</g>
				<g>
					<path class="st2" d="M46.7,22.9C34.1,48.7,2.9,59.3-22.9,46.7c-9-4.4-16.5-11.3-21.6-19.8L0,0L46.7,22.9z"/>
				</g>
				<g>
					<path class="st3" d="M-44.5,26.9c-7.9-13-9.7-28.9-4.8-43.4L0,0L-44.5,26.9z"/>
				</g>
				<g>
					<path class="st4" d="M-49.3-16.5c5-14.9,16.4-26.7,31.1-32.2L0,0L-49.3-16.5z"/>
				</g>
				<g>
					<path class="st5" d="M-18.2-48.7C-12.4-50.9-6.2-52,0-52V0L-18.2-48.7z"/>
				</g>
			</g>
		</g>
	</g>
	<text transform="matrix(1 0 0 1 81.4232 373.8)" class="st6 st7">32%</text>
	<text transform="matrix(1 0 0 1 55.2891 423.468)" class="st8 st6 st7">34%</text>
	<text transform="matrix(1 0 0 1 21.5479 394.602)" class="st8 st6 st7">14%</text>
	<text transform="matrix(1 0 0 1 30.4569 368.4363)" class="st8 st6 st7">14%</text>
	<g>
		<defs>
			<rect id="SVGID_19_" x="153" y="334" width="104" height="104"/>
		</defs>
		<clipPath id="SVGID_20_">
			<use xlink:href="#SVGID_19_"  style="overflow:visible;"/>
		</clipPath>
		<g id="group-svg_9_" transform="translate(153.00000, 334.00000)" class="st17">
			<g id="pie-svg_9_" transform="translate(52, 52)">
				<g>
					<path class="st1" d="M0-52c28.7,0,52,23.3,52,52c0,7.1-1.5,14.2-4.3,20.7L0,0V-52z"/>
				</g>
				<g>
					<path class="st2" d="M47.7,20.7c-11.4,26.3-42,38.4-68.4,27c-6.7-2.9-12.8-7.2-17.7-12.7L0,0L47.7,20.7z"/>
				</g>
				<g>
					<path class="st3" d="M-38.4,35c-11-12.1-15.7-28.7-12.7-44.8L0,0L-38.4,35z"/>
				</g>
				<g>
					<path class="st4" d="M-51.1-9.8c3.2-16.5,14.1-30.5,29.4-37.5L0,0L-51.1-9.8z"/>
				</g>
				<g>
					<path class="st5" d="M-21.7-47.2C-14.9-50.4-7.5-52,0-52V0L-21.7-47.2z"/>
				</g>
			</g>
		</g>
	</g>
	<text transform="matrix(1 0 0 1 221.018 373.1669)" class="st6 st7">32%</text>
	<text transform="matrix(1 0 0 1 199.1931 423.0574)" class="st8 st6 st7">32%</text>
	<text transform="matrix(1 0 0 1 162.5716 399.835)" class="st8 st6 st7">15%</text>
	<text transform="matrix(1 0 0 1 168.2623 370.9591)" class="st8 st6 st7">15%</text>
	<g>
		<defs>
			<rect id="SVGID_21_" x="293" y="334" width="104" height="104"/>
		</defs>
		<clipPath id="SVGID_22_">
			<use xlink:href="#SVGID_21_"  style="overflow:visible;"/>
		</clipPath>
		<g id="group-svg_10_" transform="translate(293.00000, 334.00000)" class="st18">
			<g id="pie-svg_10_" transform="translate(52, 52)">
				<g>
					<path class="st1" d="M0-52c28.7,0,52,23.3,52,52c0,10.6-3.2,20.9-9.2,29.6L0,0V-52z"/>
				</g>
				<g>
					<path class="st2" d="M42.8,29.6C26.4,53.2-6,59.1-29.6,42.8c-9.4-6.5-16.3-15.8-19.9-26.7L0,0L42.8,29.6z"/>
				</g>
				<g>
					<path class="st3" d="M-49.4,16.1c-4.3-13.2-3.1-27.5,3.2-39.8L0,0L-49.4,16.1z"/>
				</g>
				<g>
					<path class="st4" d="M-46.3-23.7c6-11.7,16.3-20.8,28.7-25.2L0,0L-46.3-23.7z"/>
				</g>
				<g>
					<path class="st5" d="M-17.6-48.9C-11.9-51-6-52,0-52V0L-17.6-48.9z"/>
				</g>
			</g>
		</g>
	</g>
	<text transform="matrix(1 0 0 1 362.6333 375.9124)" class="st6 st7">35%</text>
	<text transform="matrix(1 0 0 1 329.1416 423.1575)" class="st8 st6 st7">35%</text>
	<text transform="matrix(1 0 0 1 301.4506 388.4161)" class="st8 st6 st7">13%</text>
	<text transform="matrix(1 0 0 1 312.3947 366.5865)" class="st8 st6 st7">12%</text>
	<g>
		<defs>
			<rect id="SVGID_23_" x="433" y="334" width="104" height="104"/>
		</defs>
		<clipPath id="SVGID_24_">
			<use xlink:href="#SVGID_23_"  style="overflow:visible;"/>
		</clipPath>
		<g id="group-svg_11_" transform="translate(433.00000, 334.00000)" class="st19">
			<g id="pie-svg_11_" transform="translate(52, 52)">
				<g>
					<path class="st1" d="M0-52c28.7,0,52,23.3,52,52c0,25.4-18.3,47.1-43.4,51.3L0,0V-52z"/>
				</g>
				<g>
					<path class="st2" d="M8.6,51.3C-19.7,56-46.5,36.9-51.3,8.6c-0.7-4.1-0.9-8.3-0.6-12.4L0,0L8.6,51.3z"/>
				</g>
				<g>
					<path class="st3" d="M-51.9-3.8C-51-16-45.8-27.6-37.2-36.3L0,0L-51.9-3.8z"/>
				</g>
				<g>
					<path class="st4" d="M-37.2-36.3c6.8-7,15.4-11.9,24.9-14.2L0,0L-37.2-36.3z"/>
				</g>
				<g>
					<path class="st5" d="M-12.3-50.5c4-1,8.2-1.5,12.3-1.5V0L-12.3-50.5z"/>
				</g>
			</g>
		</g>
	</g>
	<text transform="matrix(1 0 0 1 506.2354 388.3)" class="st6 st7">47%</text>
	<text transform="matrix(1 0 0 1 451.9578 415.0226)" class="st8 st6 st7">29%</text>
	<text transform="matrix(1 0 0 1 461.1304 362.7654)" class="st8 st6 st7">9%</text>
	<g>
		<defs>
			<rect id="SVGID_25_" x="13" y="496" width="104" height="104"/>
		</defs>
		<clipPath id="SVGID_26_">
			<use xlink:href="#SVGID_25_"  style="overflow:visible;"/>
		</clipPath>
		<g id="group-svg_12_" transform="translate(13.00000, 496.00000)" class="st20">
			<g id="pie-svg_12_" transform="translate(52, 52)">
				<g>
					<path class="st1" d="M0-52c28.7,0,52,23.3,52,52c0,9.2-2.4,18.2-7,26.1L0,0V-52z"/>
				</g>
				<g>
					<path class="st2" d="M45,26.1C30.6,50.9-1.3,59.4-26.1,45c-10.4-6.1-18.4-15.6-22.6-26.9L0,0L45,26.1z"/>
				</g>
				<g>
					<path class="st3" d="M-48.7,18.1c-5-13.5-4.2-28.4,2.2-41.2L0,0L-48.7,18.1z"/>
				</g>
				<g>
					<path class="st4" d="M-46.6-23.1c6.3-12.6,17.4-22.1,30.8-26.4L0,0L-46.6-23.1z"/>
				</g>
				<g>
					<path class="st5" d="M-15.8-49.5C-10.7-51.2-5.4-52,0-52V0L-15.8-49.5z"/>
				</g>
			</g>
		</g>
	</g>
	<text transform="matrix(1 0 0 1 82.0115 536.7811)" class="st6 st7">33%</text>
	<text transform="matrix(1 0 0 1 51.0864 585.3825)" class="st8 st6 st7">36%</text>
	<text transform="matrix(1 0 0 1 21.3927 551.2894)" class="st8 st6 st7">13%</text>
	<text transform="matrix(1 0 0 1 32.6776 528.3408)" class="st8 st6 st7">13%</text>
	<g>
		<defs>
			<rect id="SVGID_27_" x="153" y="496" width="104" height="104"/>
		</defs>
		<clipPath id="SVGID_28_">
			<use xlink:href="#SVGID_27_"  style="overflow:visible;"/>
		</clipPath>
		<g id="group-svg_13_" transform="translate(153.00000, 496.00000)" class="st21">
			<g id="pie-svg_13_" transform="translate(52, 52)">
				<g>
					<path class="st1" d="M0-52c28.7,0,52,23.3,52,52c0,13.9-5.5,27.2-15.4,36.9L0,0V-52z"/>
				</g>
				<g>
					<path class="st2" d="M36.6,36.9C16.2,57.1-16.7,57-36.9,36.6c-7-7-11.8-15.9-13.9-25.5L0,0L36.6,36.9z"/>
				</g>
				<g>
					<path class="st3" d="M-50.8,11.1c-2.8-12.8-0.6-26.3,6.1-37.6L0,0L-50.8,11.1z"/>
				</g>
				<g>
					<path class="st4" d="M-44.7-26.5c6.4-10.7,16.4-18.8,28.2-22.8L0,0L-44.7-26.5z"/>
				</g>
				<g>
					<path class="st5" d="M-16.5-49.3C-11.2-51.1-5.6-52,0-52V0L-16.5-49.3z"/>
				</g>
			</g>
		</g>
	</g>
	<text transform="matrix(1 0 0 1 223.8989 540.6238)" class="st6 st7">38%</text>
	<text transform="matrix(1 0 0 1 184.6394 584.1682)" class="st8 st6 st7">34%</text>
	<text transform="matrix(1 0 0 1 161.7626 547.8235)" class="st8 st6 st7">12%</text>
	<text transform="matrix(1 0 0 1 173.4188 527.7233)" class="st8 st6 st7">11%</text>
	<g>
		<defs>
			<rect id="SVGID_29_" x="293" y="496" width="104" height="104"/>
		</defs>
		<clipPath id="SVGID_30_">
			<use xlink:href="#SVGID_29_"  style="overflow:visible;"/>
		</clipPath>
		<g id="group-svg_14_" transform="translate(293.00000, 496.00000)" class="st22">
			<g id="pie-svg_14_" transform="translate(52, 52)">
				<g>
					<path class="st1" d="M0-52c28.7,0,52,23.3,52,52c0,9.9-2.8,19.6-8.2,28L0,0V-52z"/>
				</g>
				<g>
					<path class="st2" d="M43.8,28C28.4,52.2-3.8,59.3-28,43.8c-8.6-5.5-15.5-13.5-19.6-22.8L0,0L43.8,28z"/>
				</g>
				<g>
					<path class="st3" d="M-47.6,21C-53,8.7-53.5-5.1-48.9-17.7L0,0L-47.6,21z"/>
				</g>
				<g>
					<path class="st4" d="M-48.9-17.7c4.6-12.7,14-23.2,26.2-29.1L0,0L-48.9-17.7z"/>
				</g>
				<g>
					<path class="st5" d="M-22.6-46.8C-15.6-50.2-7.8-52,0-52V0L-22.6-46.8z"/>
				</g>
			</g>
		</g>
	</g>
	<text transform="matrix(1 0 0 1 362.3486 537.3813)" class="st6 st7">34%</text>
	<text transform="matrix(1 0 0 1 331.3707 585.4055)" class="st8 st6 st7">34%</text>
	<text transform="matrix(1 0 0 1 301.3665 554.1055)" class="st8 st6 st7">12%</text>
	<text transform="matrix(1 0 0 1 309.7129 531.2339)" class="st8 st6 st7">12%</text>
	<g>
		<defs>
			<rect id="SVGID_31_" x="433" y="496" width="104" height="104"/>
		</defs>
		<clipPath id="SVGID_32_">
			<use xlink:href="#SVGID_31_"  style="overflow:visible;"/>
		</clipPath>
		<g id="group-svg_15_" transform="translate(433.00000, 496.00000)" class="st23">
			<g id="pie-svg_15_" transform="translate(52, 52)">
				<g>
					<path class="st1" d="M0-52c28.7,0,52,23.3,52,52c0,6.3-1.1,12.5-3.4,18.4L0,0V-52z"/>
				</g>
				<g>
					<path class="st2" d="M48.6,18.4c-10.2,26.9-40.2,40.4-67,30.2c-8.5-3.2-16-8.6-21.7-15.6L0,0L48.6,18.4z"/>
				</g>
				<g>
					<path class="st3" d="M-40.1,33.1C-48.7,22.7-52.9,9.3-51.8-4.1L0,0L-40.1,33.1z"/>
				</g>
				<g>
					<path class="st4" d="M-51.8-4.1c1.1-14.5,8.3-27.8,19.7-36.8L0,0L-51.8-4.1z"/>
				</g>
				<g>
					<path class="st5" d="M-32.1-40.9C-22.9-48.1-11.6-52,0-52V0L-32.1-40.9z"/>
				</g>
			</g>
		</g>
	</g>
	<text transform="matrix(1 0 0 1 500.5906 534.5319)" class="st6 st7">31%</text>
	<text transform="matrix(1 0 0 1 479.1423 585.0658)" class="st8 st6 st7">33%</text>
	<text transform="matrix(1 0 0 1 442.8484 562.7621)" class="st8 st6 st7">12%</text>
	<text transform="matrix(1 0 0 1 445.2084 537.6364)" class="st8 st6 st7">13%</text>
	<g>
		<defs>
			<rect id="SVGID_33_" x="13" y="658" width="104" height="104"/>
		</defs>
		<clipPath id="SVGID_34_">
			<use xlink:href="#SVGID_33_"  style="overflow:visible;"/>
		</clipPath>
		<g id="group-svg_16_" transform="translate(13.00000, 658.00000)" class="st24">
			<g id="pie-svg_16_" transform="translate(52, 52)">
				<g>
					<path class="st1" d="M0-52c28.7,0,52,23.3,52,52c0,11-3.5,21.7-10,30.6L0,0V-52z"/>
				</g>
				<g>
					<path class="st2" d="M42,30.6C25.1,53.8-7.4,58.9-30.6,42c-7.4-5.4-13.2-12.6-16.9-21L0,0L42,30.6z"/>
				</g>
				<g>
					<path class="st3" d="M-47.6,21C-53,8.6-53.5-5.4-48.7-18.1L0,0L-47.6,21z"/>
				</g>
				<g>
					<path class="st4" d="M-48.7-18.1c4.8-13,14.7-23.6,27.4-29.3L0,0L-48.7-18.1z"/>
				</g>
				<g>
					<path class="st5" d="M-21.4-47.4c6.7-3,14-4.6,21.4-4.6V0L-21.4-47.4z"/>
				</g>
			</g>
		</g>
	</g>
	<text transform="matrix(1 0 0 1 82.8173 700.2687)" class="st6 st7">35%</text>
	<text transform="matrix(1 0 0 1 50.3777 747.3142)" class="st8 st6 st7">33%</text>
	<text transform="matrix(1 0 0 1 21.3622 715.9735)" class="st8 st6 st7">12%</text>
	<text transform="matrix(1 0 0 1 30.1068 692.8049)" class="st8 st6 st7">13%</text>
	<g>
		<defs>
			<rect id="SVGID_35_" x="153" y="658" width="104" height="104"/>
		</defs>
		<clipPath id="SVGID_36_">
			<use xlink:href="#SVGID_35_"  style="overflow:visible;"/>
		</clipPath>
		<g id="group-svg_17_" transform="translate(153.00000, 658.00000)" class="st25">
			<g id="pie-svg_17_" transform="translate(52, 52)">
				<g>
					<path class="st1" d="M0-52c28.7,0,52,23.3,52,52c0,15.2-6.7,29.7-18.3,39.6L0,0V-52z"/>
				</g>
				<g>
					<path class="st2" d="M33.7,39.6c-21.9,18.6-54.7,16-73.3-5.9c-5.6-6.6-9.5-14.4-11.3-22.9L0,0L33.7,39.6z"/>
				</g>
				<g>
					<path class="st3" d="M-50.9,10.8c-2.8-13-0.4-26.6,6.5-37.9L0,0L-50.9,10.8z"/>
				</g>
				<g>
					<path class="st4" d="M-44.4-27.1c6.7-10.9,17.1-19,29.3-22.7L0,0L-44.4-27.1z"/>
				</g>
				<g>
					<path class="st5" d="M-15.1-49.8C-10.2-51.3-5.1-52,0-52V0L-15.1-49.8z"/>
				</g>
			</g>
		</g>
	</g>
	<text transform="matrix(1 0 0 1 224.3488 703.778)" class="st6 st7">39%</text>
	<text transform="matrix(1 0 0 1 183.3706 745.765)" class="st8 st6 st7">33%</text>
	<text transform="matrix(1 0 0 1 161.8146 709.511)" class="st8 st6 st7">12%</text>
	<text transform="matrix(1 0 0 1 173.9755 689.2833)" class="st8 st6 st7">12%</text>
	<g>
		<defs>
			<rect id="SVGID_37_" x="293" y="658" width="104" height="104"/>
		</defs>
		<clipPath id="SVGID_38_">
			<use xlink:href="#SVGID_37_"  style="overflow:visible;"/>
		</clipPath>
		<g id="group-svg_18_" transform="translate(293.00000, 658.00000)" class="st26">
			<g id="pie-svg_18_" transform="translate(52, 52)">
				<g>
					<path class="st1" d="M0-52c28.7,0,52,23.3,52,52c0,8-1.8,15.8-5.3,23L0,0V-52z"/>
				</g>
				<g>
					<path class="st2" d="M46.7,23C34,48.7,2.8,59.3-23,46.7c-10.1-5-18.4-13.2-23.5-23.3L0,0L46.7,23z"/>
				</g>
				<g>
					<path class="st3" d="M-46.4,23.4c-6.5-13-7.3-28.1-2.2-41.7L0,0L-46.4,23.4z"/>
				</g>
				<g>
					<path class="st4" d="M-48.7-18.3c5.2-13.8,16-24.7,29.7-30.1L0,0L-48.7-18.3z"/>
				</g>
				<g>
					<path class="st5" d="M-19-48.4C-12.9-50.8-6.5-52,0-52V0L-19-48.4z"/>
				</g>
			</g>
		</g>
	</g>
	<text transform="matrix(1 0 0 1 361.4404 697.8276)" class="st6 st7">32%</text>
	<text transform="matrix(1 0 0 1 334.0001 747.4996)" class="st8 st6 st7">35%</text>
	<text transform="matrix(1 0 0 1 301.3948 716.7492)" class="st8 st6 st7">13%</text>
	<text transform="matrix(1 0 0 1 310.6951 692.1919)" class="st8 st6 st7">13%</text>
	<g>
		<defs>
			<rect id="SVGID_39_" x="433" y="658" width="104" height="104"/>
		</defs>
		<clipPath id="SVGID_40_">
			<use xlink:href="#SVGID_39_"  style="overflow:visible;"/>
		</clipPath>
		<g id="group-svg_19_" transform="translate(433.00000, 658.00000)" class="st27">
			<g id="pie-svg_19_" transform="translate(52, 52)">
				<g>
					<path class="st1" d="M0-52c28.7,0,52,23.3,52,52c0,8.9-2.3,17.6-6.6,25.3L0,0V-52z"/>
				</g>
				<g>
					<path class="st2" d="M45.4,25.3c-14,25.1-45.6,34.1-70.7,20.1c-9.5-5.3-17.2-13.5-21.8-23.4L0,0L45.4,25.3z"/>
				</g>
				<g>
					<path class="st3" d="M-47.1,22c-6-12.8-6.5-27.4-1.5-40.6L0,0L-47.1,22z"/>
				</g>
				<g>
					<path class="st4" d="M-48.6-18.5C-43.5-32-33-42.7-19.7-48.1L0,0L-48.6-18.5z"/>
				</g>
				<g>
					<path class="st5" d="M-19.7-48.1C-13.4-50.7-6.7-52,0-52V0L-19.7-48.1z"/>
				</g>
			</g>
		</g>
	</g>
	<text transform="matrix(1 0 0 1 501.866 698.5311)" class="st6 st7">33%</text>
	<text transform="matrix(1 0 0 1 472.7069 747.48)" class="st8 st6 st7">35%</text>
	<text transform="matrix(1 0 0 1 441.3696 716.1948)" class="st8 st6 st7">13%</text>
	<text transform="matrix(1 0 0 1 450.5973 692.2916)" class="st8 st6 st7">13%</text>
	<g>
		<defs>
			<rect id="SVGID_41_" x="13" y="820" width="104" height="104"/>
		</defs>
		<clipPath id="SVGID_42_">
			<use xlink:href="#SVGID_41_"  style="overflow:visible;"/>
		</clipPath>
		<g id="group-svg_20_" transform="translate(13.00000, 820.00000)" class="st28">
			<g id="pie-svg_20_" transform="translate(52, 52)">
				<g>
					<path class="st1" d="M0-52c28.7,0,52,23.3,52,52c0,16.5-7.9,32.1-21.2,41.9L0,0V-52z"/>
				</g>
				<g>
					<path class="st2" d="M30.8,41.9c-23.1,17-55.7,12.1-72.7-11c-3.2-4.3-5.7-9.1-7.4-14.2L0,0L30.8,41.9z"/>
				</g>
				<g>
					<path class="st3" d="M-49.3,16.6c-5.1-15.2-3-31.8,5.8-45.2L0,0L-49.3,16.6z"/>
				</g>
				<g>
					<path class="st4" d="M-43.4-28.6c7-10.7,17.8-18.4,30.1-21.7L0,0L-43.4-28.6z"/>
				</g>
				<g>
					<path class="st5" d="M-13.3-50.3C-9-51.4-4.5-52,0-52V0L-13.3-50.3z"/>
				</g>
			</g>
		</g>
	</g>
	<text transform="matrix(1 0 0 1 84.7222 866.8594)" class="st6 st7">40%</text>
	<text transform="matrix(1 0 0 1 44.0768 907.9974)" class="st8 st6 st7">30%</text>
	<text transform="matrix(1 0 0 1 21.6136 872.8508)" class="st8 st6 st7">14%</text>
	<text transform="matrix(1 0 0 1 34.861 850.6228)" class="st8 st6 st7">12%</text>
	<g>
		<defs>
			<rect id="SVGID_43_" x="153" y="820" width="104" height="104"/>
		</defs>
		<clipPath id="SVGID_44_">
			<use xlink:href="#SVGID_43_"  style="overflow:visible;"/>
		</clipPath>
		<g id="group-svg_21_" transform="translate(153.00000, 820.00000)" class="st29">
			<g id="pie-svg_21_" transform="translate(52, 52)">
				<g>
					<path class="st1" d="M0-52c28.7,0,52,23.3,52,52c0,13.1-5,25.8-13.9,35.4L0,0V-52z"/>
				</g>
				<g>
					<path class="st2" d="M38.1,35.4c-19.6,21-52.5,22.2-73.5,2.7c-3.9-3.6-7.1-7.7-9.7-12.3L0,0L38.1,35.4z"/>
				</g>
				<g>
					<path class="st3" d="M-45.2,25.8c-8-13.9-9-30.8-2.9-45.6L0,0L-45.2,25.8z"/>
				</g>
				<g>
					<path class="st4" d="M-48.1-19.8C-42.5-33.4-31.4-44-17.5-49L0,0L-48.1-19.8z"/>
				</g>
				<g>
					<path class="st5" d="M-17.5-49C-11.9-51-6-52,0-52V0L-17.5-49z"/>
				</g>
			</g>
		</g>
	</g>
	<text transform="matrix(1 0 0 1 223.6438 864.0215)" class="st6 st7">37%</text>
	<text transform="matrix(1 0 0 1 190.1088 909.2845)" class="st8 st6 st7">30%</text>
	<text transform="matrix(1 0 0 1 161.4136 879.0698)" class="st8 st6 st7">14%</text>
	<text transform="matrix(1 0 0 1 171.4166 853.4819)" class="st8 st6 st7">13%</text>
	<g>
		<defs>
			<rect id="SVGID_45_" x="293" y="820" width="104" height="104"/>
		</defs>
		<clipPath id="SVGID_46_">
			<use xlink:href="#SVGID_45_"  style="overflow:visible;"/>
		</clipPath>
		<g id="group-svg_22_" transform="translate(293.00000, 820.00000)" class="st30">
			<g id="pie-svg_22_" transform="translate(52, 52)">
				<g>
					<path class="st1" d="M0-52c28.7,0,52,23.3,52,52c0,12.4-4.4,24.4-12.5,33.8L0,0V-52z"/>
				</g>
				<g>
					<path class="st2" d="M39.5,33.8c-18.7,21.8-51.5,24.4-73.3,5.8c-5.6-4.8-10.1-10.6-13.2-17.2L0,0L39.5,33.8z"/>
				</g>
				<g>
					<path class="st3" d="M-47,22.3C-53.4,8.7-53.7-7-47.7-20.8L0,0L-47,22.3z"/>
				</g>
				<g>
					<path class="st4" d="M-47.7-20.8c5.6-12.9,16.3-23,29.6-28L0,0L-47.7-20.8z"/>
				</g>
				<g>
					<path class="st5" d="M-18.1-48.7C-12.3-50.9-6.2-52,0-52V0L-18.1-48.7z"/>
				</g>
			</g>
		</g>
	</g>
	<text transform="matrix(1 0 0 1 363.3621 863.3929)" class="st6 st7">36%</text>
	<text transform="matrix(1 0 0 1 329.5795 909.2185)" class="st8 st6 st7">32%</text>
	<text transform="matrix(1 0 0 1 301.3519 877.5237)" class="st8 st6 st7">14%</text>
	<text transform="matrix(1 0 0 1 311.5131 853.3903)" class="st8 st6 st7">13%</text>
	<g>
		<defs>
			<rect id="SVGID_47_" x="433" y="820" width="104" height="104"/>
		</defs>
		<clipPath id="SVGID_48_">
			<use xlink:href="#SVGID_47_"  style="overflow:visible;"/>
		</clipPath>
		<g id="group-svg_23_" transform="translate(433.00000, 820.00000)" class="st31">
			<g id="pie-svg_23_" transform="translate(52, 52)">
				<g>
					<path class="st1" d="M0-52c28.7,0,52,23.3,52,52c0,16.7-8,32.4-21.6,42.2L0,0V-52z"/>
				</g>
				<g>
					<path class="st2" d="M30.4,42.2C7.1,59-25.4,53.7-42.2,30.4c-3.2-4.4-5.7-9.4-7.4-14.6L0,0L30.4,42.2z"/>
				</g>
				<g>
					<path class="st3" d="M-49.5,15.8C-54,2-52.4-13-45.2-25.7L0,0L-49.5,15.8z"/>
				</g>
				<g>
					<path class="st4" d="M-45.2-25.7c6.6-11.6,17.4-20.2,30.2-24.1L0,0L-45.2-25.7z"/>
				</g>
				<g>
					<path class="st5" d="M-15.1-49.8C-10.2-51.2-5.1-52,0-52V0L-15.1-49.8z"/>
				</g>
			</g>
		</g>
	</g>
	<text transform="matrix(1 0 0 1 504.7722 867.0129)" class="st6 st7">40%</text>
	<text transform="matrix(1 0 0 1 463.6714 907.8667)" class="st8 st6 st7">30%</text>
	<text transform="matrix(1 0 0 1 441.5214 873.6443)" class="st8 st6 st7">13%</text>
	<text transform="matrix(1 0 0 1 453.5576 851.6118)" class="st8 st6 st7">12%</text>
	<g>
		<defs>
			<rect id="SVGID_49_" x="13" y="982" width="104" height="104"/>
		</defs>
		<clipPath id="SVGID_50_">
			<use xlink:href="#SVGID_49_"  style="overflow:visible;"/>
		</clipPath>
		<g id="group-svg_24_" transform="translate(13.00000, 982.00000)" class="st32">
			<g id="pie-svg_24_" transform="translate(52, 52)">
				<g>
					<path class="st1" d="M0-52c28.7,0,52,23.3,52,52c0,12.3-4.4,24.3-12.4,33.7L0,0V-52z"/>
				</g>
				<g>
					<path class="st2" d="M39.6,33.7C21,55.6-11.8,58.2-33.7,39.6c-1.2-1-2.3-2.1-3.4-3.2L0,0L39.6,33.7z"/>
				</g>
				<g>
					<path class="st3" d="M-37.1,36.4C-49.3,24-54.5,6.3-50.9-10.7L0,0L-37.1,36.4z"/>
				</g>
				<g>
					<path class="st4" d="M-50.9-10.7c3-14.5,12.1-26.9,24.9-34.3L0,0L-50.9-10.7z"/>
				</g>
				<g>
					<path class="st5" d="M-26-45c7.9-4.6,16.9-7,26-7V0L-26-45z"/>
				</g>
			</g>
		</g>
	</g>
	<text transform="matrix(1 0 0 1 83.3493 1025.3654)" class="st6 st7">36%</text>
	<text transform="matrix(1 0 0 1 54.9983 1071.4796)" class="st8 st6 st7">26%</text>
	<text transform="matrix(1 0 0 1 22.6522 1048.1154)" class="st8 st6 st7">16%</text>
	<text transform="matrix(1 0 0 1 27.5275 1019.9343)" class="st8 st6 st7">13%</text>
	<g>
		<defs>
			<rect id="SVGID_51_" x="153" y="982" width="104" height="104"/>
		</defs>
		<clipPath id="SVGID_52_">
			<use xlink:href="#SVGID_51_"  style="overflow:visible;"/>
		</clipPath>
		<g id="group-svg_25_" transform="translate(153.00000, 982.00000)" class="st33">
			<g id="pie-svg_25_" transform="translate(52, 52)">
				<g>
					<path class="st1" d="M0-52c28.7,0,52,23.3,52,52c0,12.1-4.3,23.9-12,33.3L0,0V-52z"/>
				</g>
				<g>
					<path class="st2" d="M40,33.3C21.6,55.3-11.2,58.3-33.3,40c-5.7-4.8-10.3-10.7-13.6-17.4L0,0L40,33.3z"/>
				</g>
				<g>
					<path class="st3" d="M-46.8,22.6c-6.2-12.9-6.9-27.8-1.7-41.2L0,0L-46.8,22.6z"/>
				</g>
				<g>
					<path class="st4" d="M-48.5-18.6c5-13.1,15.2-23.7,28.2-29.2L0,0L-48.5-18.6z"/>
				</g>
				<g>
					<path class="st5" d="M-20.4-47.8C-13.9-50.6-7-52,0-52V0L-20.4-47.8z"/>
				</g>
			</g>
		</g>
	</g>
	<text transform="matrix(1 0 0 1 223.2731 1025.2018)" class="st6 st7">36%</text>
	<text transform="matrix(1 0 0 1 189.8922 1071.2584)" class="st8 st6 st7">32%</text>
	<text transform="matrix(1 0 0 1 161.3759 1040.355)" class="st8 st6 st7">13%</text>
	<text transform="matrix(1 0 0 1 170.4515 1016.4418)" class="st8 st6 st7">13%</text>
</g>
</svg>
